<?xml version="1.0" standalone="no"?>
<!DOCTYPE svg PUBLIC "-//W3C//DTD SVG 20010904//EN"
 "http://www.w3.org/TR/2001/REC-SVG-20010904/DTD/svg10.dtd">
<svg version="1.0" xmlns="http://www.w3.org/2000/svg"
 width="350.000000pt" height="350.000000pt" viewBox="0 0 350.000000 350.000000"
 preserveAspectRatio="xMidYMid meet">
<metadata>
Created by potrace 1.16, written by Peter Selinger 2001-2019
</metadata>
<g transform="translate(0.000000,350.000000) scale(0.100000,-0.100000)"
fill="#000000" stroke="none">
<path d="M1730 3156 c0 -41 -4 -86 -10 -100 -9 -25 -12 -26 -100 -26 l-90 0 0
-30 0 -30 90 0 c102 0 110 -6 110 -79 0 -37 2 -41 25 -41 23 0 25 4 25 44 0
76 1 76 106 76 l94 0 0 30 0 30 -88 0 c-55 0 -92 4 -100 12 -8 8 -12 45 -12
100 0 87 0 88 -25 88 -24 0 -25 -2 -25 -74z"/>
<path d="M1375 2473 c-218 -193 -348 -315 -351 -330 -14 -55 44 -106 93 -84
13 6 156 129 319 273 163 145 304 264 313 266 9 1 89 -63 186 -149 472 -421
450 -403 489 -393 15 3 34 17 42 30 33 50 20 68 -181 248 -463 412 -503 446
-535 446 -24 0 -87 -51 -375 -307z"/>
<path d="M1518 2313 c-128 -113 -258 -229 -288 -256 -30 -27 -65 -54 -77 -60
l-23 -10 0 -682 0 -682 68 -31 c68 -32 148 -62 163 -62 4 0 9 156 11 348 3
333 4 349 25 395 35 75 82 134 137 172 73 49 129 67 216 67 167 0 306 -99 360
-258 18 -52 20 -85 20 -396 0 -186 2 -338 4 -338 10 0 184 64 209 76 l27 15 0
690 c0 671 -1 690 -19 697 -16 6 -141 114 -557 485 l-42 37 -234 -207z m337
-78 c78 -45 115 -154 81 -236 -22 -53 -52 -85 -101 -108 -59 -28 -110 -27
-171 4 -120 60 -147 209 -56 307 68 72 160 85 247 33z"/>
<path d="M1694 2183 c-43 -21 -78 -85 -71 -128 20 -123 174 -156 237 -52 40
65 13 154 -55 183 -43 18 -71 17 -111 -3z"/>
<path d="M995 1472 c-33 -31 -90 -85 -128 -119 l-67 -63 0 -229 0 -229 23 -6
c12 -3 45 -24 72 -47 64 -54 154 -113 160 -107 3 3 4 197 3 431 l-3 426 -60
-57z"/>
<path d="M2440 1091 l0 -442 28 15 c15 8 63 40 107 71 44 32 90 62 102 68 23
10 23 11 23 250 l0 240 -92 87 c-51 48 -110 101 -130 119 l-38 33 0 -441z"/>
<path d="M1691 1440 c-66 -14 -142 -61 -184 -116 -65 -84 -68 -107 -65 -484
l3 -335 65 -12 c146 -28 409 -26 528 4 l23 5 -3 362 c-3 354 -3 362 -26 404
-70 131 -205 199 -341 172z"/>
<path d="M732 753 c-12 -10 -24 -31 -28 -46 -6 -24 0 -34 41 -74 26 -25 92
-74 146 -109 178 -117 362 -192 581 -236 159 -32 424 -32 583 0 241 48 455
141 642 279 85 62 107 90 97 127 -6 24 -47 56 -72 56 -4 0 -53 -32 -108 -71
-414 -296 -935 -359 -1402 -168 -118 48 -211 102 -328 190 -51 38 -101 69
-112 69 -11 0 -29 -8 -40 -17z"/>
</g>
</svg>
